Coordinates
version=1
nRows=16
nColumns=40
inDegrees=yes

Units are S.I. units (second, meters, Newtons, ...)
If the header above contains a line with 'inDegrees', this indicates whether rotational values are in degrees (yes) or radians (no).

endheader
time	pelvis_tilt	pelvis_list	pelvis_rotation	pelvis_tx	pelvis_ty	pelvis_tz	hip_flexion_r	hip_adduction_r	hip_rotation_r	knee_angle_r	knee_angle_r_beta	ankle_angle_r	subtalar_angle_r	mtp_angle_r	hip_flexion_l	hip_adduction_l	hip_rotation_l	knee_angle_l	knee_angle_l_beta	ankle_angle_l	subtalar_angle_l	mtp_angle_l	lumbar_extension	lumbar_bending	lumbar_rotation	arm_flex_r	arm_add_r	arm_rot_r	elbow_flex_r	pro_sup_r	wrist_flex_r	wrist_dev_r	arm_flex_l	arm_add_l	arm_rot_l	elbow_flex_l	pro_sup_l	wrist_flex_l	wrist_dev_l
      3.54000000	    -14.49772461	      4.60766526	     -2.06927982	     -0.24174780	      0.92076704	     -0.93194259	     33.13976300	    -14.87843912	     -9.24441795	     34.93004354	      0.60964427	     -9.07047387	      0.00000000	      0.00000000	     28.64938394	     -4.41222360	     -8.53258336	     30.55219948	      0.53323647	     -6.76811679	      0.00000000	      0.00000000	    -10.67964720	     -1.55796103	     -4.33019485	    -33.44236206	    -58.24298112	     25.62602074	    114.18914037	     85.14853624	      0.00000000	      0.00000000	    -24.92740283	    -57.01661158	     41.34014371	    107.14818104	     87.26424403	      0.00000000	      0.00000000
      3.54500000	    -14.23578358	      4.24252685	     -1.95970116	     -0.23741517	      0.93327052	     -0.93139347	     30.63786836	    -14.15516491	    -10.27326617	     31.01109532	      0.54124572	    -13.07176576	      0.00000000	      0.00000000	     26.53513539	     -4.39417077	     -8.62006557	     26.85783238	      0.46875761	    -11.18706967	      0.00000000	      0.00000000	    -10.12916723	     -1.13695095	     -4.40680188	    -33.71193353	    -58.34685043	     25.48205050	    113.80392698	     85.25019699	      0.00000000	      0.00000000	    -24.66476987	    -56.56772787	     41.45897995	    106.39960896	     87.26529243	      0.00000000	      0.00000000
      3.55000000	    -14.08341701	      3.82989564	     -2.00356701	     -0.23290373	      0.94567773	     -0.93058895	     28.29016132	    -13.20712354	    -11.10392248	     26.95851948	      0.47051493	    -17.15412702	      0.00000000	      0.00000000	     24.47979319	     -4.50787503	     -8.97446205	     22.99537793	      0.40134506	    -15.79460024	      0.00000000	      0.00000000	     -9.43497452	     -0.68705221	     -4.30552112	    -33.87685050	    -58.23044516	     25.39051624	    113.33063074	     85.36040146	      0.00000000	      0.00000000	    -24.35182769	    -56.01437389	     41.65050216	    105.62665063	     87.24522355	      0.00000000	      0.00000000
      3.55500000	    -14.13672625	      3.41206573	     -1.85243647	     -0.22872497	      0.95805572	     -0.93022645	     26.18227953	    -12.31376295	    -12.01708300	     22.81015572	      0.39811232	    -21.92121352	      0.00000000	      0.00000000	     22.83407225	     -4.50699620	     -8.95636251	     19.16026224	      0.33440966	    -21.36892960	      0.00000000	      0.00000000	     -8.56477419	     -0.16714798	     -4.33947487	    -34.04914141	    -57.91149268	     25.21124732	    112.56022737	     85.44257912	      0.00000000	      0.00000000	    -24.06188767	    -55.26459395	     41.54199693	    104.66206615	     87.22188199	      0.00000000	      0.00000000
      3.56000000	    -13.93902512	      3.11761506	     -1.87820513	     -0.22399841	      0.97065038	     -0.92959407	     23.88316281	    -11.47829585	    -12.90021733	     18.66824655	      0.32582237	    -26.91631795	      0.00000000	      0.00000000	     20.78523808	     -4.47103608	     -9.50069747	     15.10384468	      0.26361182	    -27.24289217	      0.00000000	      0.00000000	     -7.92579892	      0.18323517	     -4.22234104	    -34.16169919	    -57.39550480	     25.14319821	    111.63267903	     85.53872668	      0.00000000	      0.00000000	    -23.83522240	    -54.51216490	     41.48380550	    103.74302528	     87.19938151	      0.00000000	      0.00000000
      3.56500000	    -13.60615919	      2.91522904	     -1.88590185	     -0.21911825	      0.98345577	     -0.92912350	     21.42287514	    -10.66533764	    -13.45785010	     14.39365175	      0.25121661	    -31.63368730	      0.00000000	      0.00000000	     18.42348988	     -4.24484195	     -9.89988251	     10.56270999	      0.18435407	    -32.86302923	      0.00000000	      0.00000000	     -7.46388971	      0.45240329	     -4.12555002	    -34.21591525	    -56.80484978	     25.28691988	    110.67471618	     85.70033275	      0.00000000	      0.00000000	    -23.50351198	    -53.89735871	     41.46269224	    102.90948186	     87.16273705	      0.00000000	      0.00000000
      3.57000000	    -13.63606944	      2.59327685	     -1.87267591	     -0.21463288	      0.99580502	     -0.92855040	     19.65162923	     -9.81405113	    -14.78934956	     10.67485708	      0.18631140	    -35.79146970	      0.00000000	      0.00000000	     16.89394644	     -4.29503664	    -10.83530403	      7.07158972	      0.12342252	    -37.11902995	      0.00000000	      0.00000000	     -6.63215318	      0.84906416	     -3.98881550	    -34.23283948	    -55.84666840	     25.32771260	    109.33770486	     85.75985516	      0.00000000	      0.00000000	    -23.36751055	    -52.95393314	     41.08512533	    101.91806444	     87.13392131	      0.00000000	      0.00000000
      3.57500000	    -13.34328782	      2.40788550	     -1.87168263	     -0.20997140	      1.00841267	     -0.92805765	     17.53882549	     -9.05972024	    -15.91940566	      7.15807259	      0.12493193	    -38.03378016	      0.00000000	      0.00000000	     14.96254977	     -4.11923178	    -11.56865404	      3.73858980	      0.06525070	    -38.56343948	      0.00000000	      0.00000000	     -6.13437133	      1.08547951	     -3.91096447	    -34.06375953	    -54.95275129	     25.58648363	    108.13497930	     85.83373632	      0.00000000	      0.00000000	    -23.24531770	    -52.28094522	     40.86909846	    101.21032787	     87.14551785	      0.00000000	      0.00000000
      3.58000000	    -13.31134288	      2.25071098	     -1.77433250	     -0.20587807	      1.02093031	     -0.92795452	     16.04838302	     -8.42456372	    -18.00393018	      4.48159604	      0.07821861	    -38.60070605	      0.00000000	      0.00000000	     13.80406953	     -3.93166326	    -13.21335972	      1.46345512	      0.02554211	    -38.67774584	      0.00000000	      0.00000000	     -5.44168831	      1.33981794	     -3.92942383	    -33.72296906	    -53.88472180	     25.89253750	    106.67414526	     85.87746192	      0.00000000	      0.00000000	    -23.07686423	    -51.44322006	     40.58959364	    100.38504611	     87.12543009	      0.00000000	      0.00000000
      3.58500000	    -13.51182174	      1.98828124	     -1.88654166	     -0.20172123	      1.03310057	     -0.92718709	     15.04249933	     -7.60302117	    -20.64646000	      2.27279323	      0.03966773	    -38.32288904	      0.00000000	      0.00000000	     13.46819620	     -4.08351868	    -16.11672109	      0.62594510	      0.01092480	    -38.04065617	      0.00000000	      0.00000000	     -4.45063217	      1.65144190	     -3.65261636	    -33.51279108	    -52.58812221	     26.12912372	    104.92300035	     85.87620020	      0.00000000	      0.00000000	    -23.03654689	    -50.70063135	     40.29487738	     99.53010725	     87.09490899	      0.00000000	      0.00000000
      3.59000000	    -13.43838583	      1.72348815	     -1.78740322	     -0.19814350	      1.04545733	     -0.92706936	     14.21129453	     -6.98596694	    -24.08787035	      1.29741458	      0.02264416	    -38.11358200	      0.00000000	      0.00000000	     13.04294447	     -4.13670250	    -19.44204266	      0.46303601	      0.00808150	    -36.81170879	      0.00000000	      0.00000000	     -3.89203691	      2.00247231	     -3.67119910	    -32.94350411	    -51.30581672	     26.48092711	    103.40770821	     85.88750074	      0.00000000	      0.00000000	    -22.88089945	    -49.94404966	     39.93246173	     98.81489010	     87.08723524	      0.00000000	      0.00000000
      3.59500000	    -13.67098629	      1.54246758	     -1.98937143	     -0.19501396	      1.05694023	     -0.92644782	     14.12056966	     -6.43587040	    -26.78807062	      1.15778679	      0.02020719	    -37.28629774	      0.00000000	      0.00000000	     12.91831150	     -4.18414576	    -22.66979006	      0.44150047	      0.00770564	    -35.51078418	      0.00000000	      0.00000000	     -3.00176936	      2.22113924	     -4.10279345	    -30.79446860	    -50.66410238	     28.63780932	    101.73276154	     85.92243670	      0.00000000	      0.00000000	    -24.53548732	    -48.78617968	     37.77668275	     98.29224769	     87.13984387	      0.00000000	      0.00000000
      3.60000000	    -14.07308501	      1.30856511	     -1.88022601	     -0.19270117	      1.06772032	     -0.92657137	     14.29843137	     -5.97729877	    -29.03720487	      1.35919543	      0.02372244	    -36.22601338	      0.00000000	      0.00000000	     13.05894091	     -4.17695839	    -25.35518732	      0.52904433	      0.00923357	    -34.72806860	      0.00000000	      0.00000000	     -2.01868927	      2.56301624	     -4.05957004	    -30.47384423	    -49.30056946	     28.65394171	    100.16551798	     85.81699205	      0.00000000	      0.00000000	    -24.39459603	    -48.24840969	     37.59220918	     97.75962254	     87.07420789	      0.00000000	      0.00000000
      3.60500000	    -14.32940676	      1.23199494	     -1.61889502	     -0.19089728	      1.07845100	     -0.92677636	     14.47321115	     -5.83007172	    -31.25827987	      1.93217257	      0.03372277	    -35.80069001	      0.00000000	      0.00000000	     13.15511032	     -3.98385901	    -27.64821015	      0.65425262	      0.01141886	    -34.92536025	      0.00000000	      0.00000000	     -1.25253598	      2.70112201	     -4.24155075	    -29.89479321	    -48.02070448	     28.89924532	     98.78482622	     85.78109235	      0.00000000	      0.00000000	    -24.11908570	    -47.93348696	     37.63708731	     97.30052163	     87.11188472	      0.00000000	      0.00000000
      3.61000000	    -14.02094129	      0.91219300	     -0.84540827	     -0.18819523	      1.08987317	     -0.92797068	     13.73583260	     -5.54893677	    -33.16106293	      2.34681256	      0.04095961	    -36.02389910	      0.00000000	      0.00000000	     12.66510348	     -3.91431656	    -29.13984030	      0.93340235	      0.01629094	    -35.89237070	      0.00000000	      0.00000000	     -1.03945362	      3.11691217	     -4.89688011	    -29.40522136	    -46.61247102	     28.84949348	     97.11083407	     85.76261402	      0.00000000	      0.00000000	    -23.84764561	    -47.48266436	     37.67933015	     96.66892899	     87.14048963	      0.00000000	      0.00000000
      3.61500000	    -14.08689671	      0.93220831	     -0.41520566	     -0.18735340	      1.10063048	     -0.92837025	     13.78717597	     -5.61717812	    -34.40762939	      3.22521139	      0.05629056	    -36.68261324	      0.00000000	      0.00000000	     12.73996570	     -3.70953755	    -30.30155490	      1.49896901	      0.02616194	    -37.56214952	      0.00000000	      0.00000000	     -0.63804982	      3.11957735	     -5.22413999	    -28.66294861	    -45.27059763	     29.03640796	     95.58819622	     85.74433168	      0.00000000	      0.00000000	    -23.46260477	    -47.30379520	     37.81323440	     96.18103874	     87.18034542	      0.00000000	      0.00000000
